HIERARCHY
ROOT SpineBase
{
  OFFSET 0.000000 0.000000 0.000000
  CHANNELS 6 Xposition Yposition Zposition Zrotation Xrotation Yrotation
  JOINT SpineMid
  {
    OFFSET -0.000000 35.926879 0.000000
    CHANNELS 3 Zrotation Xrotation Yrotation
    JOINT SpineShoulder
    {
      OFFSET -0.219897 26.668281 -0.992163
      CHANNELS 3 Zrotation Xrotation Yrotation
      JOINT Neck
      {
        OFFSET -0.143893 8.816181 -0.725045
        CHANNELS 3 Zrotation Xrotation Yrotation
        JOINT Head
        {
          OFFSET -2.210087 11.540672 6.194479
          CHANNELS 3 Zrotation Xrotation Yrotation
          End Site
          {
            OFFSET 0 0 0
          }
        }
      }
      JOINT ShoulderLeft
      {
        OFFSET -11.936741 -3.969585 19.684508
        CHANNELS 3 Zrotation Xrotation Yrotation
        JOINT ElbowLeft
        {
          OFFSET -12.988279 -10.979756 -26.068074
          CHANNELS 3 Zrotation Xrotation Yrotation
          JOINT WristLeft
          {
            OFFSET -10.711602 -9.534656 14.892491
            CHANNELS 3 Zrotation Xrotation Yrotation
            JOINT HandLeft
            {
              OFFSET -3.530608 -3.261153 5.416187
              CHANNELS 3 Zrotation Xrotation Yrotation
              JOINT HandTipLeft
              {
                OFFSET 1.095328 2.485867 2.343997
                CHANNELS 3 Zrotation Xrotation Yrotation
                End Site
                {
                  OFFSET 0 0 0
                }
              }
              JOINT ThumbLeft
              {
                OFFSET -0.177107 0.544473 -2.978069
                CHANNELS 3 Zrotation Xrotation Yrotation
                End Site
                {
                  OFFSET 0 0 0
                }
              }
            }
          }
        }
      }
      JOINT ShoulderRight
      {
        OFFSET -1.274333 -5.755111 -13.836102
        CHANNELS 3 Zrotation Xrotation Yrotation
        JOINT ElbowRight
        {
          OFFSET -11.286406 -23.689014 -6.298423
          CHANNELS 3 Zrotation Xrotation Yrotation
          JOINT WristRight
          {
            OFFSET -8.398259 -20.195378 1.353112
            CHANNELS 3 Zrotation Xrotation Yrotation
            JOINT HandRight
            {
              OFFSET -2.878403 -9.988259 2.435620
              CHANNELS 3 Zrotation Xrotation Yrotation
              JOINT HandTipRight
              {
                OFFSET -5.975788 -6.013256 0.660549
                CHANNELS 3 Zrotation Xrotation Yrotation
                End Site
                {
                  OFFSET 0 0 0
                }
              }
              JOINT ThumbRight
              {
                OFFSET 4.668566 -2.022793 -4.486625
                CHANNELS 3 Zrotation Xrotation Yrotation
                End Site
                {
                  OFFSET 0 0 0
                }
              }
            }
          }
        }
      }
    }
  }
  JOINT HipLeft
  {
    OFFSET -2.239931 0.700831 -0.077200
    CHANNELS 3 Zrotation Xrotation Yrotation
    JOINT KneeLeft
    {
      OFFSET -6.511849 -40.574939 -2.559618
      CHANNELS 3 Zrotation Xrotation Yrotation
      JOINT AnkleLeft
      {
        OFFSET 3.137368 -33.761743 0.166818
        CHANNELS 3 Zrotation Xrotation Yrotation
        JOINT FootLeft
        {
          OFFSET -9.847021 -5.143539 -7.491299
          CHANNELS 3 Zrotation Xrotation Yrotation
          End Site
          {
            OFFSET 0 0 0
          }
        }
      }
    }
  }
  JOINT HipRight
  {
    OFFSET 0.920794 1.990989 -7.785834
    CHANNELS 3 Zrotation Xrotation Yrotation
    JOINT KneeRight
    {
      OFFSET -20.204572 -36.365789 -5.771215
      CHANNELS 3 Zrotation Xrotation Yrotation
      JOINT AnkleRight
      {
        OFFSET -0.214640 -38.168145 -3.236165
        CHANNELS 3 Zrotation Xrotation Yrotation
        JOINT FootRight
        {
          OFFSET -5.112746 -5.569263 1.929687
          CHANNELS 3 Zrotation Xrotation Yrotation
          End Site
          {
            OFFSET 0 0 0
          }
        }
      }
    }
  }
}
MOTION
Frames: 15
Frame Time: 0.033333
49.055370 79.351531 296.810595 0.000000 0.000000 67.705193 -0.000000 0.000000 -67.705193 -0.000000 0.000000 0.000000 -0.000000 0.000000 0.000000 0.000000 0.000000 0.000000 -0.000000 0.000000 0.000000 -0.000000 0.000000 0.000000 -0.000000 0.000000 0.000000 -0.000000 0.000000 0.000000 0.000000 0.000000 0.000000 0.000000 0.000000 0.000000 -0.000000 0.000000 0.000000 -0.000000 0.000000 0.000000 -0.000000 0.000000 0.000000 -0.000000 0.000000 0.000000 0.000000 0.000000 0.000000 0.000000 0.000000 0.000000 -0.000000 0.000000 -67.705193 -0.000000 0.000000 0.000000 -0.000000 0.000000 0.000000 0.000000 0.000000 0.000000 -0.000000 0.000000 -67.705193 -0.000000 0.000000 0.000000 -0.000000 0.000000 0.000000 0.000000 0.000000 0.000000
49.038448 79.347455 296.832873 0.022365 -0.051583 67.691200 0.039232 0.040272 -67.691204 -0.000000 0.000000 0.000000 -0.000000 0.000000 0.000000 0.000000 0.000000 0.000000 -0.000000 0.000000 0.000000 -0.000000 0.000000 0.000000 -0.000000 0.000000 0.000000 -0.000000 0.000000 0.000000 0.000000 0.000000 0.000000 0.000000 0.000000 0.000000 -0.000000 0.000000 0.000000 -0.705571 -0.907442 0.323505 1.915345 2.157533 -0.439057 7.132685 -1.884588 1.967191 0.000000 0.000000 0.000000 0.000000 0.000000 0.000000 0.039232 0.040272 -67.691204 -0.000000 0.000000 0.000000 -2.146030 2.142680 -0.880843 0.000000 0.000000 0.000000 0.039232 0.040272 -67.691204 -0.000000 0.000000 0.000000 0.835150 -0.242554 0.516891 0.000000 0.000000 0.000000
49.015736 79.344515 296.849410 0.038819 -0.096860 67.659613 0.074835 0.072723 -67.659628 -0.000000 0.000000 0.000000 1.263029 0.221635 -0.635950 0.000000 0.000000 0.000000 -0.000000 0.000000 0.000000 -0.000000 0.000000 0.000000 -0.000000 0.000000 0.000000 -0.000000 0.000000 0.000000 0.000000 0.000000 0.000000 0.000000 0.000000 0.000000 -0.000000 0.000000 0.000000 -1.204897 -1.551367 0.545247 3.448360 3.792212 -0.802281 12.826460 -3.204680 3.890622 0.000000 0.000000 0.000000 0.000000 0.000000 0.000000 0.592246 0.985065 -67.755908 1.159019 -1.794343 0.020153 -4.344470 4.907986 -1.508584 0.000000 0.000000 0.000000 0.074835 0.072723 -67.659628 -0.000000 0.000000 0.000000 1.325329 -0.432862 0.869700 0.000000 0.000000 0.000000
48.987236 79.342713 296.860207 0.049368 -0.135839 67.610248 0.106794 0.097388 -67.610281 -0.000000 0.000000 0.000000 1.712225 0.282234 -0.865639 0.000000 0.000000 0.000000 -0.000000 0.000000 0.000000 -0.000000 0.000000 0.000000 -0.000000 0.000000 0.000000 -0.000000 0.000000 0.000000 0.000000 0.000000 0.000000 0.000000 0.000000 0.000000 -0.000000 0.000000 0.000000 -1.538444 -1.978598 0.688582 4.580790 4.915064 -1.064978 16.740107 -4.047045 5.446750 0.000000 0.000000 0.000000 0.000000 0.000000 0.000000 0.788820 1.280479 -67.739165 1.473198 -2.355388 0.032114 -5.706080 6.662170 -2.153579 0.000000 0.000000 0.000000 0.106794 0.097388 -67.610281 -0.000000 0.000000 0.000000 1.494509 -0.581354 1.070048 0.000000 0.000000 0.000000
48.952947 79.342048 296.865264 0.054017 -0.168525 67.542906 0.135111 0.114296 -67.542961 -0.000000 0.000000 0.000000 2.041571 0.311809 -1.036696 0.000000 0.000000 0.000000 -0.000000 0.000000 0.000000 -0.000000 0.000000 0.000000 -0.000000 0.000000 0.000000 -0.000000 0.000000 0.000000 0.000000 0.000000 0.000000 0.000000 0.000000 0.000000 -0.000000 0.000000 0.000000 -1.730528 -2.217758 0.767092 5.291572 5.528105 -1.206491 18.804115 -4.534855 6.443798 0.000000 0.000000 0.000000 0.000000 0.000000 0.000000 0.919074 1.445304 -67.692502 1.613279 -2.698045 0.039047 -6.549248 7.955464 -2.787390 0.000000 0.000000 0.000000 0.135111 0.114296 -67.542961 -0.000000 0.000000 0.000000 1.356054 -0.694073 1.125107 0.000000 0.000000 0.000000
48.912869 79.342521 296.864581 0.052771 -0.194925 67.457364 0.159801 0.123468 -67.457446 -0.000000 0.000000 0.000000 2.252105 0.311622 -1.149383 0.000000 0.000000 0.000000 -0.000000 0.000000 0.000000 -0.000000 0.000000 0.000000 -0.000000 0.000000 0.000000 -0.000000 0.000000 0.000000 0.000000 0.000000 0.000000 0.000000 0.000000 0.000000 -0.000000 0.000000 0.000000 -1.794022 -2.283973 0.787747 5.565609 5.632067 -1.213626 19.059599 -4.753889 6.798105 0.000000 0.000000 0.000000 0.000000 0.000000 0.000000 0.983333 1.479762 -67.615061 1.580777 -2.825433 0.038745 -6.890904 8.796842 -3.438929 0.000000 0.000000 0.000000 0.159801 0.123468 -67.457446 -0.000000 0.000000 0.000000 0.913709 -0.773389 1.037910 0.000000 0.000000 0.000000
48.862071 79.346191 296.863126 0.038878 -0.217258 67.308955 0.185444 0.119678 -67.309075 -0.000000 0.000000 0.000000 2.177696 0.143046 -1.139400 0.000000 0.000000 0.000000 -0.000000 0.000000 0.000000 -0.000000 0.000000 0.000000 -0.000000 0.000000 0.000000 -0.000000 0.000000 0.000000 0.000000 0.000000 0.000000 0.000000 0.000000 0.000000 -0.000000 0.000000 0.000000 -1.532844 -2.208785 0.781013 4.912000 5.374221 -1.195805 17.762010 -4.926777 6.802920 0.000000 0.000000 0.000000 0.000000 0.000000 0.000000 0.962857 1.284360 -67.456693 1.219238 -2.636796 0.025929 -5.674404 8.944963 -5.174864 0.000000 0.000000 0.000000 0.185444 0.119678 -67.309075 -0.000000 0.000000 0.000000 0.245513 -0.631539 0.666229 0.000000 0.000000 0.000000
48.808896 79.345780 296.856556 0.023555 -0.244433 67.143095 0.216090 0.116650 -67.143265 -0.000000 0.000000 0.000000 1.979758 0.051892 -1.049945 0.000000 0.000000 0.000000 -0.000000 0.000000 0.000000 -0.000000 0.000000 0.000000 -0.000000 0.000000 0.000000 -0.000000 0.000000 0.000000 0.000000 0.000000 0.000000 0.000000 0.000000 0.000000 -0.000000 0.000000 0.000000 -1.249982 -1.701831 0.602104 4.192654 3.951024 -0.739714 14.342918 -4.229529 5.515538 0.000000 0.000000 0.000000 0.000000 0.000000 0.000000 0.879808 0.967940 -67.267392 0.676528 -2.173504 0.012386 -5.991262 9.434833 -5.478399 0.000000 0.000000 0.000000 0.216090 0.116650 -67.143265 -0.000000 0.000000 0.000000 -1.041531 -0.525923 0.115995 0.000000 0.000000 0.000000
48.753132 79.349380 296.831118 0.000291 -0.248264 67.016372 0.228443 0.097207 -67.016565 -0.000000 0.000000 0.000000 1.627546 -0.134573 -0.895617 0.000000 0.000000 0.000000 -0.000000 0.000000 0.000000 -0.000000 0.000000 0.000000 -0.000000 0.000000 0.000000 -0.000000 0.000000 0.000000 0.000000 0.000000 0.000000 0.000000 0.000000 0.000000 -0.000000 0.000000 0.000000 -1.465303 -1.718713 0.590878 4.870776 3.866563 -0.614158 13.998717 -3.786077 4.854281 0.000000 0.000000 0.000000 0.000000 0.000000 0.000000 0.228443 0.097207 -67.016565 -0.071191 -1.045024 -0.098116 -4.999555 8.868826 -5.995388 0.000000 0.000000 0.000000 0.228443 0.097207 -67.016565 -0.000000 0.000000 0.000000 -3.303691 -0.648762 -0.552417 0.000000 0.000000 0.000000
48.696202 79.358196 296.789389 -0.025036 -0.238694 66.937229 0.229424 0.070471 -66.937422 -0.000000 0.000000 0.000000 1.818708 -0.023130 -0.977451 0.000000 0.000000 0.000000 -0.000000 0.000000 0.000000 -0.000000 0.000000 0.000000 -0.000000 0.000000 0.000000 -0.000000 0.000000 0.000000 0.000000 0.000000 0.000000 0.000000 0.000000 0.000000 -0.000000 0.000000 0.000000 -1.083256 -1.148876 0.392526 3.370500 2.302227 -0.267303 7.313618 -3.380349 3.672705 0.000000 0.000000 0.000000 0.000000 0.000000 0.000000 0.229424 0.070471 -66.937422 -0.245202 -0.843833 -0.081447 -5.441812 8.973929 -5.637222 0.000000 0.000000 0.000000 0.229424 0.070471 -66.937422 -0.000000 0.000000 0.000000 -3.966779 -0.771074 -0.670915 0.000000 0.000000 0.000000
48.642503 79.370495 296.749057 -0.047470 -0.220101 66.939881 0.221107 0.042535 -66.940054 -0.000000 0.000000 0.000000 2.309751 0.316917 -1.179284 0.000000 0.000000 0.000000 -0.000000 0.000000 0.000000 -0.000000 0.000000 0.000000 -0.000000 0.000000 0.000000 -0.000000 0.000000 0.000000 0.000000 0.000000 0.000000 0.000000 0.000000 0.000000 -0.000000 0.000000 0.000000 -0.974335 -0.754764 0.241213 2.941971 1.131091 0.082051 1.043680 -2.521976 2.207560 0.000000 0.000000 0.000000 0.000000 0.000000 0.000000 0.221107 0.042535 -66.940054 -0.000000 0.000000 0.000000 -6.260042 7.503082 -4.037199 0.000000 0.000000 0.000000 0.221107 0.042535 -66.940054 0.531991 -0.659885 -0.038352 -5.687199 -0.336112 -0.781572 0.000000 0.000000 0.000000
48.581620 79.381004 296.701830 -0.093127 -0.222866 66.922124 0.241535 0.001685 -66.922309 -0.000000 0.000000 0.000000 2.843817 0.585940 -1.418363 0.000000 0.000000 0.000000 -0.000000 0.000000 0.000000 -0.000000 0.000000 0.000000 -0.000000 0.000000 0.000000 -0.000000 0.000000 0.000000 0.000000 0.000000 0.000000 0.000000 0.000000 0.000000 -0.000000 0.000000 0.000000 -1.132130 -0.737479 0.222532 3.385479 0.661784 0.305196 -2.788482 -1.928112 1.358381 0.000000 0.000000 0.000000 0.000000 0.000000 0.000000 0.241535 0.001685 -66.922309 -0.000000 0.000000 0.000000 -6.433837 7.610859 -3.969615 0.000000 0.000000 0.000000 0.241535 0.001685 -66.922309 0.507494 -0.673401 -0.036279 -6.328436 -0.466434 -0.877806 0.000000 0.000000 0.000000
48.526961 79.396334 296.654490 -0.094215 -0.190810 66.901604 0.212475 -0.011805 -66.901739 -0.000000 0.000000 0.000000 4.100253 1.498878 -1.941233 0.000000 0.000000 0.000000 -0.000000 0.000000 0.000000 -0.000000 0.000000 0.000000 -0.000000 0.000000 0.000000 -0.000000 0.000000 0.000000 0.000000 0.000000 0.000000 0.000000 0.000000 0.000000 -0.000000 0.000000 0.000000 -1.380100 -0.936093 0.283958 4.342964 0.745624 0.425386 -2.194590 -1.444256 0.963545 0.000000 0.000000 0.000000 0.000000 0.000000 0.000000 0.212475 -0.011805 -66.901739 -0.000000 0.000000 0.000000 -8.946968 9.161734 -3.000919 0.000000 0.000000 0.000000 0.212475 -0.011805 -66.901739 -0.000000 0.000000 0.000000 -4.159083 -1.214355 -0.357711 0.000000 0.000000 0.000000
48.474461 79.411267 296.623001 -0.000935 -0.097730 66.975761 0.090310 0.037364 -66.975792 -0.000000 0.000000 0.000000 5.382515 2.607854 -2.461685 0.000000 0.000000 0.000000 -0.000000 0.000000 0.000000 -0.000000 0.000000 0.000000 -0.000000 0.000000 0.000000 -0.000000 0.000000 0.000000 0.000000 0.000000 0.000000 0.000000 0.000000 0.000000 -0.000000 0.000000 0.000000 -1.522594 -1.219056 0.386332 5.194900 1.171831 0.409161 -1.231400 -1.911407 1.377993 0.000000 0.000000 0.000000 0.000000 0.000000 0.000000 0.090310 0.037364 -66.975792 -0.000000 0.000000 0.000000 -10.739220 10.432908 -2.557389 0.000000 0.000000 0.000000 0.090310 0.037364 -66.975792 -0.000000 0.000000 0.000000 -3.782834 -1.385949 -0.081733 0.000000 0.000000 0.000000
48.422360 79.447214 296.622270 0.142491 0.025082 67.046724 -0.078665 0.121428 -67.046672 -0.000000 0.000000 0.000000 6.785040 3.208035 -3.138253 0.000000 0.000000 0.000000 -0.000000 0.000000 0.000000 -0.000000 0.000000 0.000000 -0.000000 0.000000 0.000000 -0.000000 0.000000 0.000000 0.000000 0.000000 0.000000 0.000000 0.000000 0.000000 -0.000000 0.000000 0.000000 -1.416858 -1.504611 0.509118 5.326409 1.790029 0.202401 -1.399507 -2.677641 1.870675 0.000000 0.000000 0.000000 0.000000 0.000000 0.000000 -0.425427 -0.977443 -66.984439 -1.778908 0.874756 -0.039134 -11.988864 11.929645 -2.166518 0.000000 0.000000 0.000000 -0.078665 0.121428 -67.046672 -0.000000 0.000000 0.000000 -3.705950 -1.416376 -0.029016 0.000000 0.000000 0.000000
